<?xml version="1.0" encoding="iso-8859-1"?>
<!-- Generator: Adobe Illustrator 18.1.1, SVG Export Plug-In . SVG Version: 6.00 Build 0)  -->
<svg xmlns="http://www.w3.org/2000/svg" xmlns:xlink="http://www.w3.org/1999/xlink" version="1.1" id="Capa_1" x="0px" y="0px" viewBox="0 0 478.895 478.895" style="enable-background:new 0 0 478.895 478.895;" xml:space="preserve" width="512px" height="512px">
<g>
	<g>
		<path d="M478.688,225.517c-2.229-38.86-13.725-75.232-32.313-106.95l-86.771,150.292L478.688,225.517z" fill="#006DF0"/>
		<path d="M431.577,382.65c22.177-29.674,37.619-64.668,44.099-102.715l-163.152,59.383L431.577,382.65z" fill="#006DF0"/>
		<path d="M294.424,472.593c37.381-8.748,71.382-26.26,99.742-50.24l-163.001-59.324L294.424,472.593z" fill="#006DF0"/>
		<path d="M413.678,74.991c-25.635-27.117-57.539-48.239-93.393-61.06l30.098,170.692L413.678,74.991z" fill="#006DF0"/>
		<path d="M19.575,333.91c14.948,34.777,37.896,65.299,66.53,89.258l30.023-170.277L19.575,333.91z" fill="#006DF0"/>
		<circle cx="238.4" cy="239.719" r="86.287" fill="#006DF0"/>
		<path d="M131.683,453.213c32.443,16.42,69.123,25.682,107.971,25.682c0.184,0,0.365-0.008,0.549-0.008    l-86.599-149.992L131.683,453.213z" fill="#006DF0"/>
		<path d="M267.232,1.59C258.18,0.552,248.983,0,239.654,0c-29.194,0-57.165,5.232-83.034,14.797    l132.553,111.225L267.232,1.59z" fill="#006DF0"/>
		<path d="M10.277,170.581c-6.539,21.812-10.069,44.925-10.069,68.866c0,14.399,1.272,28.499,3.708,42.198    l132.357-111.063L10.277,170.581L10.277,170.581z" fill="#006DF0"/>
		<path d="M108.015,39.421c-31.307,20.646-57.49,48.431-76.205,81.055h172.805L108.015,39.421z" fill="#006DF0"/>
	</g>
</g>
<g>
</g>
<g>
</g>
<g>
</g>
<g>
</g>
<g>
</g>
<g>
</g>
<g>
</g>
<g>
</g>
<g>
</g>
<g>
</g>
<g>
</g>
<g>
</g>
<g>
</g>
<g>
</g>
<g>
</g>
</svg>
