<?xml version="1.0" encoding="UTF-8" standalone="no"?>
<!-- Created with Inkscape (http://www.inkscape.org/) -->

<svg
   xmlns:dc="http://purl.org/dc/elements/1.1/"
   xmlns:cc="http://creativecommons.org/ns#"
   xmlns:rdf="http://www.w3.org/1999/02/22-rdf-syntax-ns#"
   xmlns:svg="http://www.w3.org/2000/svg"
   xmlns="http://www.w3.org/2000/svg"
   xmlns:sodipodi="http://sodipodi.sourceforge.net/DTD/sodipodi-0.dtd"
   xmlns:inkscape="http://www.inkscape.org/namespaces/inkscape"
   width="210mm"
   height="297mm"
   viewBox="0 0 744.09448819 1052.3622047"
   id="svg2"
   version="1.1"
   inkscape:version="0.91 r13725"
   sodipodi:docname="mouse_wheel.svg">
  <defs
     id="defs4" />
  <sodipodi:namedview
     id="base"
     pagecolor="#ffffff"
     bordercolor="#666666"
     borderopacity="1.0"
     inkscape:pageopacity="0.0"
     inkscape:pageshadow="2"
     inkscape:zoom="0.49497475"
     inkscape:cx="421.8429"
     inkscape:cy="651.38066"
     inkscape:document-units="px"
     inkscape:current-layer="layer1"
     showgrid="false"
     inkscape:snap-bbox="true"
     inkscape:snap-global="false"
     inkscape:window-width="1280"
     inkscape:window-height="951"
     inkscape:window-x="0"
     inkscape:window-y="0"
     inkscape:window-maximized="1" />
  <metadata
     id="metadata7">
    <rdf:RDF>
      <cc:Work
         rdf:about="">
        <dc:format>image/svg+xml</dc:format>
        <dc:type
           rdf:resource="http://purl.org/dc/dcmitype/StillImage" />
        <dc:title />
      </cc:Work>
    </rdf:RDF>
  </metadata>
  <g
     inkscape:label="Layer 1"
     inkscape:groupmode="layer"
     id="layer1">
    <g
       id="g4139"
       transform="translate(165.70851,162.71027)">
      <g
         id="g4141">
        <path
           id="path4143"
           d="m 448,112 -16,0 C 401.125,112 376,86.879 376,56 376,33.945 358.055,16 336,16 l -56,0 c -39.703,0 -72,32.301 -72,72 0,4.418 -3.578,8 -8,8 -4.422,0 -8,-3.582 -8,-8 0,-48.523 39.477,-88 88,-88 l 56,0 c 30.875,0 56,25.121 56,56 0,22.055 17.945,40 40,40 l 16,0 c 4.422,0 8,3.582 8,8 0,4.418 -3.578,8 -8,8 z"
           style="fill:#5c546a"
           inkscape:connector-curvature="0" />
      </g>
    </g>
    <g
       id="g4145"
       transform="translate(165.70851,162.71027)">
      <path
         id="path4147"
         d="m 256,80 -112,0 c -48.523,0 -88,39.477 -88,88 l 0,200 c 0,79.402 64.602,144 144,144 79.398,0 144,-64.598 144,-144 l 0,-200 c 0,-48.523 -39.477,-88 -88,-88 z"
         style="fill:#868491"
         inkscape:connector-curvature="0" />
    </g>
    <g
       id="g4149"
       transform="translate(165.70851,162.71027)">
      <path
         id="path4151"
         d="m 256,80 -56.219,0 0,431.989 c 0.074,0 0.145,0.011 0.219,0.011 79.398,0 144,-64.598 144,-144 l 0,-200 c 0,-48.523 -39.477,-88 -88,-88 z"
         style="fill:#b4b6bc"
         inkscape:connector-curvature="0" />
    </g>
    <g
       id="g4153"
       transform="translate(165.70851,162.71027)">
      <path
         id="path4155"
         d="M 304,94.339 C 290.181,85.303 273.708,80 256,80 l -112,0 c -17.708,0 -34.181,5.303 -48,14.339 L 96,232 c 0,30.879 25.125,56 56,56 l 96,0 c 30.875,0 56,-25.121 56,-56 l 0,-137.661 z"
         style="fill:#5c546a"
         inkscape:connector-curvature="0" />
    </g>
    <g
       id="g4157"
       transform="translate(165.70851,162.71027)">
      <path
         id="path4159"
         d="m 199.781,80 0,208 48.219,0 c 30.875,0 56,-25.121 56,-56 L 304,94.339 C 290.181,85.303 273.708,80 256,80 l -56.219,0 z"
         style="fill:#868491"
         inkscape:connector-curvature="0" />
    </g>
    <g
       id="g4161"
       transform="translate(165.70851,162.71027)">
      <path
         id="path4163"
         d="m 200,224 0,0 c -8.837,0 -16,-7.163 -16,-16 l 0,-48 c 0,-8.837 7.163,-16 16,-16 l 0,0 c 8.837,0 16,7.163 16,16 l 0,48 c 0,8.836 -7.163,16 -16,16 z"
         style="fill:#b4b6bc"
         inkscape:connector-curvature="0" />
    </g>
    <g
       id="g4165"
       transform="translate(165.70851,162.71027)">
      <path
         id="path4167"
         d="m 200,144 c -0.075,0 -0.145,0.021 -0.219,0.022 l 0,79.956 c 0.075,0.001 0.144,0.022 0.219,0.022 8.836,0 16,-7.164 16,-16 l 0,-48 c 0,-8.837 -7.163,-16 -16,-16 z"
         style="fill:#ffffff"
         inkscape:connector-curvature="0" />
    </g>
    <g
       id="g4169"
       transform="translate(52.571429,184.93363)" />
    <g
       id="g4171"
       transform="translate(52.571429,184.93363)" />
    <g
       id="g4173"
       transform="translate(52.571429,184.93363)" />
    <g
       id="g4175"
       transform="translate(52.571429,184.93363)" />
    <g
       id="g4177"
       transform="translate(52.571429,184.93363)" />
    <g
       id="g4179"
       transform="translate(52.571429,184.93363)" />
    <g
       id="g4181"
       transform="translate(52.571429,184.93363)" />
    <g
       id="g4183"
       transform="translate(52.571429,184.93363)" />
    <g
       id="g4185"
       transform="translate(52.571429,184.93363)" />
    <g
       id="g4187"
       transform="translate(52.571429,184.93363)" />
    <g
       id="g4189"
       transform="translate(52.571429,184.93363)" />
    <g
       id="g4191"
       transform="translate(52.571429,184.93363)" />
    <g
       id="g4193"
       transform="translate(52.571429,184.93363)" />
    <g
       id="g4195"
       transform="translate(52.571429,184.93363)" />
    <g
       id="g4197"
       transform="translate(52.571429,184.93363)" />
    <path
       style="fill:none;fill-rule:evenodd;stroke:#ff0000;stroke-width:4;stroke-linecap:butt;stroke-linejoin:miter;stroke-miterlimit:4;stroke-dasharray:none;stroke-opacity:1"
       d="m 405.99422,345.85313 187.14286,0"
       id="path4286"
       inkscape:connector-curvature="0" />
    <circle
       style="fill:#ff0000;fill-opacity:1;stroke:#ff0000;stroke-width:4;stroke-miterlimit:4;stroke-dasharray:none;stroke-opacity:1"
       id="path4288"
       cx="403.13708"
       cy="345.85312"
       r="7.1428571" />
    <circle
       style="fill:#ff0000;fill-opacity:1;stroke:#ff0000;stroke-width:4;stroke-miterlimit:4;stroke-dasharray:none;stroke-opacity:1"
       id="path4288-3"
       cx="590.9942"
       cy="345.13882"
       r="7.1428571" />
    <flowRoot
       xml:space="preserve"
       id="flowRoot4305"
       style="font-style:normal;font-weight:normal;font-size:40px;line-height:125%;font-family:sans-serif;letter-spacing:0px;word-spacing:0px;fill:#000000;fill-opacity:1;stroke:none;stroke-width:1px;stroke-linecap:butt;stroke-linejoin:miter;stroke-opacity:1"><flowRegion
         id="flowRegion4307"><rect
           id="rect4309"
           width="137.38075"
           height="64.649765"
           x="440.42651"
           y="395.76306" /></flowRegion><flowPara
         id="flowPara4311">Wheel.</flowPara></flowRoot>    <text
       xml:space="preserve"
       style="font-style:normal;font-weight:normal;font-size:40px;line-height:125%;font-family:sans-serif;letter-spacing:0px;word-spacing:0px;fill:#ff0000;fill-opacity:1;stroke:none;stroke-width:1px;stroke-linecap:butt;stroke-linejoin:miter;stroke-opacity:1"
       x="553.5636"
       y="397.78336"
       id="text4313"
       sodipodi:linespacing="125%"><tspan
         sodipodi:role="line"
         id="tspan4315"
         x="553.5636"
         y="397.78336">Wheel.</tspan></text>
    <text
       xml:space="preserve"
       style="font-style:normal;font-weight:normal;font-size:40px;line-height:125%;font-family:sans-serif;letter-spacing:0px;word-spacing:0px;fill:#ff0000;fill-opacity:1;stroke:none;stroke-width:1px;stroke-linecap:butt;stroke-linejoin:miter;stroke-opacity:1"
       x="65.859665"
       y="182.38071"
       id="text4313-3"
       sodipodi:linespacing="125%"><tspan
         sodipodi:role="line"
         id="tspan4315-6"
         x="65.859665"
         y="182.38071">SHIFT +</tspan></text>
  </g>
</svg>
